<?xml version="1.0" encoding="UTF-8"?><svg id="Ebene_3" xmlns="http://www.w3.org/2000/svg" xmlns:xlink="http://www.w3.org/1999/xlink" viewBox="0 0 841.89 272.87"><defs><style>.cls-1{fill:#fff;}.cls-2{fill:url(#Unbenannter_Verlauf_1133);}</style><linearGradient id="Unbenannter_Verlauf_1133" x1="63.02" y1="52.64" x2="132.5" y2="172.99" gradientUnits="userSpaceOnUse"><stop offset="0" stop-color="#21b2b1"/><stop offset=".26" stop-color="#1faead"/><stop offset=".48" stop-color="#1ca3a2"/><stop offset=".68" stop-color="#159291"/><stop offset=".88" stop-color="#0c7978"/><stop offset="1" stop-color="#066665"/></linearGradient></defs><path class="cls-2" d="M114.94,102.55l42.56,38.74-35.05-.06-42.63-37.47,38.35-34.92h33.72l-36.95,33.7ZM69.19,49.08l-34.5,30.46v61.76l34.5,30.46V49.08ZM95.05,148.96l-25.85,22.8,25.85,22.86,25.85-22.8-25.85-22.86Z"/><path class="cls-1" d="M220.88,110.21h-3.94v29.45h-12.17v-69.33h12.17v28.4h3.83l21.33-28.4h14.49l-25.39,33.97,25.85,35.36h-14.96l-21.22-29.45Z"/><path class="cls-1" d="M284.51,137.45c-1.62-1.39-4.29-3.94-5.45-5.22-2.78-3.02-3.82-5.45-3.82-9.51v-35.47c0-3.48.69-5.79,2.78-8.23,1.39-1.62,3.94-4.29,5.21-5.45,3.02-2.78,5.45-3.82,9.51-3.82h17.62c3.48,0,5.79.69,8.23,2.78,1.62,1.39,4.29,3.94,5.45,5.22,2.78,3.01,3.83,5.45,3.83,9.5v35.47c0,3.48-.69,5.8-2.78,8.23-1.39,1.62-3.94,4.29-5.22,5.45-3.01,2.78-5.45,3.83-9.5,3.83h-17.62c-3.48,0-5.8-.7-8.23-2.78ZM289.84,126.2c1.51,1.51,2.67,2.44,3.13,2.44h17.16c.46,0,1.51-.81,3.13-2.44,1.5-1.51,2.43-2.67,2.43-3.13v-36.17c0-.46-.81-1.51-2.43-3.13-1.51-1.5-2.67-2.43-3.13-2.43h-17.16c-.46,0-1.51.81-3.13,2.43-1.51,1.51-2.44,2.67-2.44,3.13v36.17c0,.46.81,1.5,2.44,3.13Z"/><path class="cls-1" d="M380.24,112.29h-13.22v27.36h-12.17v-69.33h33.97c2.44,0,5.1.69,7.3,2.32,1.39,1.04,4.52,4.18,5.56,5.56,1.62,2.21,2.32,4.87,2.32,7.31v11.59c0,2.43-.7,5.1-2.32,7.3-1.04,1.39-4.17,4.52-5.56,5.56-.93.69-1.97,1.27-3.01,1.62l13.68,28.06h-13.68l-12.87-27.36ZM367.03,100.7h20.17c.93,0,1.62-.46,2.9-1.74,1.27-1.28,1.74-1.97,1.74-2.9v-9.51c0-.93-.46-1.62-1.74-2.9-1.28-1.27-1.97-1.74-2.9-1.74h-20.17v18.78Z"/><path class="cls-1" d="M480.04,95.02c0,4.52-2.67,7.42-5.33,10.09,2.67,2.67,5.33,5.1,5.33,9.97v9.39c0,2.44-.7,5.1-2.32,7.3-1.04,1.39-4.17,4.52-5.56,5.56-2.2,1.62-4.87,2.32-7.31,2.32h-33.85v-69.33h33.85c2.44,0,5.1.69,7.31,2.32,1.39,1.04,4.52,4.18,5.56,5.56,1.62,2.21,2.32,4.87,2.32,7.31v9.5ZM467.87,86.55c0-.93-.46-1.62-1.74-2.9-1.28-1.27-1.97-1.74-2.9-1.74h-20.06v17.51h20.06c.93,0,1.62-.46,2.9-1.74,1.27-1.27,1.74-1.97,1.74-2.9v-8.23ZM467.87,115.3c0-.93-.46-1.62-1.74-2.9-1.28-1.27-1.97-1.74-2.9-1.74h-20.06v17.39h20.06c.93,0,1.62-.46,2.9-1.74,1.27-1.27,1.74-1.97,1.74-2.9v-8.12Z"/><path class="cls-1" d="M506.96,70.33h12.17v69.33h-12.17v-69.33Z"/><path class="cls-1" d="M592.62,81.92h-18.78v57.74h-12.17v-57.74h-18.78v-11.59h49.74v11.59Z"/><path class="cls-1" d="M614.89,132.58c-1.39-1.62-3.48-4.87-4.06-6.38l11.94-3.13c2.21,3.36,4.75,5.56,5.8,5.56h19.01c.46,0,1.51-.81,3.13-2.44,1.51-1.51,2.44-2.67,2.44-3.13v-6.84c0-1.04-.81-1.85-1.39-1.97l-30.14-8.58c-5.91-1.62-9.04-7.19-9.04-12.64v-5.79c0-3.48.7-5.79,2.78-8.23,1.39-1.62,3.94-4.29,5.22-5.45,3.02-2.78,5.45-3.82,9.51-3.82h16.92c5.68,0,9.63,3.36,13.22,7.65,1.39,1.62,3.48,4.87,4.06,6.38l-11.94,3.13c-2.2-3.36-4.75-5.56-5.68-5.56h-16.35c-.46,0-1.5.81-3.13,2.43-1.51,1.51-2.44,2.67-2.44,3.13v5.45c0,1.04.7,1.85,1.28,1.97l30.26,8.81c5.92,1.74,9.04,7.42,9.04,12.64v6.95c0,3.48-.7,5.8-2.78,8.23-1.39,1.62-3.94,4.29-5.22,5.45-3.02,2.78-5.45,3.83-9.51,3.83h-19.71c-5.68,0-9.62-3.36-13.21-7.65Z"/><path class="cls-1" d="M699.97,137.45c-1.62-1.39-4.29-3.94-5.45-5.22-2.78-3.02-3.82-5.45-3.82-9.51v-35.47c0-3.48.69-5.79,2.78-8.23,1.39-1.62,3.94-4.29,5.21-5.45,3.02-2.78,5.45-3.82,9.51-3.82h15.77c5.68,0,9.62,3.36,13.21,7.65,1.39,1.62,3.48,4.87,4.06,6.38l-11.94,3.13c-2.2-3.36-4.75-5.56-5.68-5.56h-15.19c-.46,0-1.51.81-3.13,2.43-1.51,1.51-2.44,2.67-2.44,3.13v36.17c0,.46.81,1.5,2.44,3.13,1.51,1.51,2.67,2.44,3.13,2.44h15.07c1.04,0,3.59-2.21,5.79-5.56l11.94,3.13c-.58,1.51-2.67,4.75-4.06,6.38-3.59,4.29-7.53,7.65-13.21,7.65h-15.77c-3.48,0-5.8-.7-8.23-2.78Z"/><path class="cls-1" d="M815.07,70.33v69.33h-12.17v-28.63h-25.28v28.63h-12.17v-69.33h12.17v29.1h25.28v-29.1h12.17Z"/><path class="cls-1" d="M229.5,221.17v4.12h-25.21v-44.5h4.26v40.39h20.94Z"/><path class="cls-1" d="M276.97,221.77c-1.12,1.12-4.12,3.89-6.58,3.89h-5.91c-1.57,0-2.92-.3-4.12-1.04-1.04-.68-3.21-2.84-3.89-3.89-.75-1.19-1.05-2.54-1.05-4.11v-23.56h4.04v23.79c0,1.12.37,1.87,1.72,3.22,1.34,1.35,2.09,1.72,3.22,1.72h5.76c2.17,0,6.06-3.59,6.66-5.01v-23.71h4.04v26.85l.53,5.39h-3.97l-.45-3.52Z"/><path class="cls-1" d="M334.09,225.29h-5.31l-13.01-15.11h-2.54v15.11h-4.04v-44.5h4.04v25.51h2.54l12.04-13.24h5.09l-13.46,15.11,14.66,17.13Z"/><path class="cls-1" d="M382.83,225.29h-4.04l-.45-3.52c-1.72,1.8-4.34,3.89-6.43,3.89h-6.73c-1.57,0-2.92-.3-4.12-1.04-1.05-.68-3.22-2.84-3.89-3.89-.75-1.19-1.05-2.54-1.05-4.11v-1.05c0-1.57.3-2.92,1.05-4.12.67-1.04,2.84-3.21,3.89-3.89,1.2-.75,2.55-1.05,4.12-1.05h13.01v-5.01c0-1.12-.37-1.87-1.72-3.22s-2.1-1.72-3.22-1.72h-7.78c-1.8,0-3.22,2.25-4.41,3.82l-3.81-1.35c2.32-3.59,4.64-6.36,8.45-6.36h7.48c1.57,0,2.92.3,4.11,1.05,1.05.67,3.22,2.84,3.89,3.89.74,1.2,1.04,2.54,1.04,4.11v18.1l.6,5.46ZM378.19,216.83v-6.58h-13.09c-1.12,0-1.87.37-3.21,1.72-1.35,1.34-1.72,2.09-1.72,3.22v1.72c0,1.12.38,1.87,1.72,3.22,1.34,1.34,2.09,1.72,3.21,1.72h6.73c1.05,0,5.16-2.92,6.36-5.01Z"/><path class="cls-1" d="M408.9,219.3l3.82-1.34c1.42,2.02,2.62,3.81,4.26,3.81h9.35c1.12,0,1.87-.37,3.22-1.72,1.35-1.35,1.72-2.09,1.72-3.22v-2.47c0-1.64-1.2-2.84-2.77-2.99l-12.71-.97c-3.67-.3-6.21-2.92-6.21-6.73v-1.95c0-1.57.3-2.91,1.04-4.11.68-1.05,2.84-3.22,3.89-3.89,1.19-.75,2.54-1.05,4.11-1.05h7.78c3.81,0,6.43,3.07,8.38,6.43l-3.67,1.27c-1.2-1.65-2.77-3.82-4.49-3.82h-8.08c-1.12,0-1.87.37-3.22,1.72-1.35,1.35-1.72,2.1-1.72,3.22v2.1c0,1.64,1.27,2.84,2.77,2.99l12.64.97c3.66.3,6.28,2.99,6.28,6.81v2.25c0,1.57-.3,2.92-1.05,4.11-.67,1.05-2.84,3.22-3.89,3.89-1.19.74-2.54,1.04-4.11,1.04h-8.98c-3.74,0-6.36-2.99-8.38-6.36Z"/></svg>